<svg width="127" height="41" viewBox="0 0 127 41" fill="none" xmlns="http://www.w3.org/2000/svg">
<rect y="0.5" width="127" height="40" rx="8" fill="black"/>
<path d="M30.1258 19.8645C30.136 19.065 30.3477 18.2811 30.741 17.5857C31.1343 16.8903 31.6966 16.306 32.3754 15.8872C31.9442 15.2692 31.3753 14.7607 30.7139 14.4019C30.0525 14.0431 29.3168 13.844 28.5654 13.8204C26.9623 13.6516 25.4083 14.7829 24.5914 14.7829C23.7587 14.7829 22.501 13.8372 21.1466 13.8651C20.2706 13.8935 19.4169 14.1491 18.6686 14.6071C17.9202 15.065 17.3029 15.7096 16.8767 16.4782C15.0305 19.6856 16.4076 24.3995 18.1761 26.9922C19.061 28.2617 20.0951 29.6799 21.4482 29.6296C22.7723 29.5745 23.2669 28.7823 24.8652 28.7823C26.4487 28.7823 26.9126 29.6296 28.2932 29.5976C29.714 29.5745 30.6092 28.3224 31.463 27.0408C32.0988 26.1362 32.588 25.1364 32.9125 24.0785C32.0871 23.7282 31.3826 23.1418 30.8871 22.3924C30.3915 21.643 30.1267 20.7639 30.1258 19.8645Z" fill="white"/>
<path d="M27.5181 12.1154C28.2928 11.1822 28.6745 9.98274 28.582 8.77173C27.3985 8.89647 26.3052 9.46408 25.52 10.3615C25.1361 10.7999 24.8421 11.3099 24.6548 11.8624C24.4674 12.4149 24.3905 12.999 24.4282 13.5814C25.0202 13.5875 25.6059 13.4587 26.1411 13.2048C26.6763 12.9509 27.1471 12.5784 27.5181 12.1154Z" fill="white"/>
<path d="M46.8635 26.4157H42.3449L41.2598 29.6308H39.3459L43.6258 17.7356H45.6143L49.8942 29.6308H47.9477L46.8635 26.4157ZM42.8129 24.9321H46.3946L44.6289 19.7141H44.5795L42.8129 24.9321Z" fill="white"/>
<path d="M59.1374 25.2951C59.1374 27.9901 57.6999 29.7216 55.5306 29.7216C54.981 29.7505 54.4345 29.6234 53.9536 29.3551C53.4726 29.0868 53.0767 28.6879 52.8112 28.2043H52.7702V32.4999H50.9961V20.9583H52.7133V22.4008H52.7459C53.0237 21.9195 53.4263 21.5227 53.9109 21.2527C54.3955 20.9827 54.9439 20.8496 55.4979 20.8676C57.6915 20.8676 59.1374 22.6075 59.1374 25.2951ZM57.3139 25.2951C57.3139 23.5392 56.4097 22.3849 55.0299 22.3849C53.6745 22.3849 52.7627 23.5635 52.7627 25.2951C52.7627 27.0425 53.6745 28.2127 55.0299 28.2127C56.4097 28.2127 57.3139 27.0668 57.3139 25.2951Z" fill="white"/>
<path d="M68.65 25.2951C68.65 27.9901 67.2125 29.7216 65.0431 29.7216C64.4936 29.7505 63.9471 29.6234 63.4662 29.3551C62.9852 29.0868 62.5893 28.6879 62.3238 28.2043H62.2827V32.4999H60.5087V20.9583H62.2259V22.4008H62.2585C62.5362 21.9195 62.9388 21.5227 63.4234 21.2527C63.908 20.9827 64.4565 20.8496 65.0105 20.8676C67.2041 20.8676 68.65 22.6075 68.65 25.2951ZM66.8265 25.2951C66.8265 23.5392 65.9222 22.3849 64.5425 22.3849C63.187 22.3849 62.2753 23.5635 62.2753 25.2951C62.2753 27.0425 63.187 28.2127 64.5425 28.2127C65.9222 28.2127 66.8265 27.0668 66.8265 25.2951Z" fill="white"/>
<path d="M74.9371 26.3166C75.0685 27.4962 76.2105 28.2707 77.7711 28.2707C79.2664 28.2707 80.3422 27.4962 80.3422 26.4326C80.3422 25.5093 79.6934 24.9564 78.157 24.5776L76.6207 24.2062C74.4439 23.6786 73.4334 22.6571 73.4334 20.9995C73.4334 18.9471 75.2158 17.5374 77.7469 17.5374C80.2518 17.5374 81.969 18.9471 82.0268 20.9995H80.2359C80.1287 19.8124 79.1508 19.0958 77.7217 19.0958C76.2925 19.0958 75.3146 19.8208 75.3146 20.876C75.3146 21.717 75.9392 22.2118 77.4672 22.5906L78.7732 22.9124C81.2055 23.4896 82.216 24.47 82.216 26.2099C82.216 28.4353 80.4494 29.8292 77.6396 29.8292C75.0107 29.8292 73.2357 28.4681 73.121 26.3165L74.9371 26.3166Z" fill="white"/>
<path d="M86.0447 18.906V20.9584H87.6883V22.3681H86.0447V27.1492C86.0447 27.892 86.3738 28.2381 87.0963 28.2381C87.2914 28.2347 87.4862 28.2209 87.6799 28.1969V29.5982C87.355 29.6591 87.0249 29.6867 86.6945 29.6805C84.9447 29.6805 84.2623 29.021 84.2623 27.3391V22.3681H83.0056V20.9584H84.2623V18.906H86.0447Z" fill="white"/>
<path d="M88.6402 25.2952C88.6402 22.5665 90.2418 20.8518 92.7392 20.8518C95.2451 20.8518 96.8393 22.5665 96.8393 25.2952C96.8393 28.0314 95.2535 29.7386 92.7392 29.7386C90.2259 29.7386 88.6402 28.0314 88.6402 25.2952ZM95.0316 25.2952C95.0316 23.4234 94.1768 22.3186 92.7392 22.3186C91.3017 22.3186 90.4478 23.4318 90.4478 25.2952C90.4478 27.1745 91.3017 28.2709 92.7392 28.2709C94.1768 28.2709 95.0316 27.1745 95.0316 25.2952Z" fill="white"/>
<path d="M98.3019 20.9585H99.9939V22.4346H100.035C100.149 21.9736 100.419 21.5661 100.797 21.2808C101.176 20.9955 101.641 20.8496 102.114 20.8677C102.318 20.867 102.522 20.8893 102.722 20.9341V22.5992C102.464 22.5201 102.194 22.4838 101.925 22.4917C101.667 22.4812 101.41 22.5268 101.171 22.6253C100.933 22.7239 100.719 22.8731 100.543 23.0626C100.367 23.2522 100.235 23.4776 100.154 23.7235C100.073 23.9694 100.047 24.2298 100.076 24.487V29.631H98.3019L98.3019 20.9585Z" fill="white"/>
<path d="M110.901 27.0838C110.663 28.6582 109.135 29.7386 107.18 29.7386C104.665 29.7386 103.105 28.0482 103.105 25.3364C103.105 22.6161 104.674 20.8518 107.105 20.8518C109.496 20.8518 111 22.5001 111 25.1296V25.7395H104.896V25.8471C104.868 26.1663 104.907 26.4878 105.012 26.7904C105.118 27.0929 105.286 27.3695 105.506 27.6019C105.726 27.8342 105.992 28.0169 106.288 28.1379C106.584 28.2589 106.902 28.3154 107.221 28.3036C107.64 28.343 108.061 28.2456 108.42 28.0258C108.78 27.806 109.059 27.4756 109.217 27.0838L110.901 27.0838ZM104.904 24.4954H109.225C109.241 24.2084 109.198 23.9212 109.098 23.6518C108.998 23.3825 108.843 23.1367 108.644 22.9301C108.445 22.7234 108.206 22.5602 107.941 22.4508C107.676 22.3414 107.391 22.2881 107.105 22.2943C106.816 22.2925 106.53 22.3482 106.262 22.4582C105.995 22.5681 105.752 22.73 105.548 22.9347C105.343 23.1393 105.181 23.3826 105.07 23.6505C104.96 23.9183 104.903 24.2055 104.904 24.4954Z" fill="white"/>
<path d="M42.5905 8.78236C42.9624 8.75558 43.3356 8.81196 43.6832 8.94744C44.0308 9.08292 44.3441 9.29412 44.6005 9.56581C44.8569 9.83749 45.05 10.1629 45.1659 10.5185C45.2818 10.8742 45.3176 11.2512 45.2707 11.6224C45.2707 13.4484 44.2872 14.498 42.5905 14.498H40.533V8.78236H42.5905ZM41.4177 13.6897H42.4917C42.7574 13.7056 43.0234 13.6619 43.2702 13.5617C43.517 13.4615 43.7384 13.3073 43.9184 13.1104C44.0983 12.9135 44.2322 12.6788 44.3104 12.4234C44.3885 12.168 44.4089 11.8983 44.3701 11.634C44.4061 11.3708 44.3836 11.1028 44.3043 10.8493C44.225 10.5957 44.0907 10.363 43.9112 10.1676C43.7316 9.97228 43.5113 9.81919 43.2659 9.71935C43.0205 9.6195 42.7561 9.57535 42.4917 9.59008H41.4177V13.6897Z" fill="white"/>
<path d="M46.2701 12.3396C46.2431 12.0561 46.2754 11.7701 46.365 11.4999C46.4545 11.2297 46.5994 10.9813 46.7903 10.7706C46.9811 10.5599 47.2138 10.3915 47.4733 10.2763C47.7328 10.1611 48.0135 10.1016 48.2973 10.1016C48.581 10.1016 48.8617 10.1611 49.1212 10.2763C49.3807 10.3915 49.6134 10.5599 49.8042 10.7706C49.9951 10.9813 50.14 11.2297 50.2295 11.4999C50.3191 11.7701 50.3514 12.0561 50.3244 12.3396C50.352 12.6233 50.32 12.9097 50.2307 13.1804C50.1413 13.451 49.9965 13.6999 49.8056 13.911C49.6147 14.1221 49.3819 14.2909 49.1221 14.4063C48.8623 14.5218 48.5814 14.5814 48.2973 14.5814C48.0131 14.5814 47.7322 14.5218 47.4724 14.4063C47.2126 14.2909 46.9798 14.1221 46.7889 13.911C46.598 13.6999 46.4532 13.451 46.3638 13.1804C46.2745 12.9097 46.2426 12.6233 46.2701 12.3396ZM49.4518 12.3396C49.4518 11.4046 49.0332 10.8578 48.2986 10.8578C47.5612 10.8578 47.1464 11.4046 47.1464 12.3396C47.1464 13.2821 47.5613 13.8246 48.2986 13.8246C49.0333 13.8246 49.4518 13.2783 49.4518 12.3396Z" fill="white"/>
<path d="M55.7137 14.4972H54.8336L53.9452 11.3204H53.8781L52.9934 14.4972H52.1217L50.9369 10.1838H51.7973L52.5674 13.4752H52.6308L53.5145 10.1838H54.3284L55.2121 13.4752H55.2793L56.0456 10.1838H56.8939L55.7137 14.4972Z" fill="white"/>
<path d="M57.8905 10.1844H58.7071V10.8696H58.7705C58.8781 10.6235 59.0594 10.4172 59.2894 10.2795C59.5193 10.1417 59.7864 10.0794 60.0533 10.1012C60.2624 10.0854 60.4725 10.117 60.6678 10.1938C60.8631 10.2705 61.0387 10.3903 61.1816 10.5444C61.3245 10.6985 61.431 10.8828 61.4932 11.0838C61.5555 11.2848 61.5718 11.4973 61.5411 11.7055V14.4978H60.6928V11.9192C60.6928 11.2261 60.3926 10.8813 59.7652 10.8813C59.6232 10.8747 59.4815 10.899 59.3497 10.9524C59.2179 11.0059 59.0992 11.0874 59.0017 11.1912C58.9042 11.295 58.8302 11.4188 58.7848 11.5539C58.7395 11.6891 58.7238 11.8326 58.7388 11.9744V14.4978H57.8905L57.8905 10.1844Z" fill="white"/>
<path d="M62.8929 8.5H63.7412V14.4972H62.8929V8.5Z" fill="white"/>
<path d="M64.9205 12.3387C64.8935 12.0552 64.9259 11.7692 65.0155 11.499C65.1051 11.2288 65.25 10.9804 65.4409 10.7696C65.6318 10.5589 65.8644 10.3905 66.124 10.2753C66.3835 10.1601 66.6642 10.1006 66.9479 10.1006C67.2317 10.1006 67.5124 10.1601 67.7719 10.2753C68.0315 10.3905 68.2641 10.5589 68.455 10.7696C68.6459 10.9804 68.7908 11.2288 68.8804 11.499C68.97 11.7692 69.0023 12.0552 68.9753 12.3387C69.0028 12.6225 68.9709 12.9089 68.8815 13.1795C68.7921 13.4501 68.6473 13.699 68.4564 13.9101C68.2655 14.1212 68.0326 14.29 67.7728 14.4054C67.513 14.5209 67.2321 14.5805 66.9479 14.5805C66.6638 14.5805 66.3828 14.5209 66.1231 14.4054C65.8633 14.29 65.6304 14.1212 65.4395 13.9101C65.2486 13.699 65.1038 13.4501 65.0144 13.1795C64.925 12.9089 64.893 12.6225 64.9205 12.3387ZM68.1023 12.3387C68.1023 11.4037 67.6837 10.8569 66.9491 10.8569C66.2117 10.8569 65.7969 11.4037 65.7969 12.3387C65.7969 13.2812 66.2117 13.8237 66.9491 13.8237C67.6837 13.8237 68.1023 13.2774 68.1023 12.3387Z" fill="white"/>
<path d="M69.8684 13.2784C69.8684 12.5019 70.4445 12.0543 71.4672 11.9907L72.6316 11.9234V11.551C72.6316 11.0955 72.3314 10.8382 71.7515 10.8382C71.278 10.8382 70.9498 11.0127 70.8557 11.3176H70.0343C70.121 10.5768 70.8156 10.1016 71.7907 10.1016C72.8684 10.1016 73.4762 10.6399 73.4762 11.551V14.4982H72.6595V13.892H72.5924C72.4562 14.1094 72.2649 14.2867 72.038 14.4057C71.8112 14.5247 71.557 14.5811 71.3013 14.5693C71.1208 14.5881 70.9384 14.5688 70.7659 14.5125C70.5933 14.4563 70.4344 14.3644 70.2994 14.2428C70.1644 14.1212 70.0563 13.9725 69.9821 13.8064C69.9078 13.6403 69.8691 13.4604 69.8684 13.2784ZM72.6316 12.9098V12.5492L71.5819 12.6165C70.9899 12.6563 70.7214 12.8583 70.7214 13.2386C70.7214 13.6268 71.057 13.8527 71.5185 13.8527C71.6537 13.8664 71.7903 13.8527 71.9201 13.8124C72.05 13.7721 72.1704 13.706 72.2743 13.618C72.3781 13.53 72.4633 13.422 72.5246 13.3003C72.586 13.1787 72.6224 13.0458 72.6316 12.9098Z" fill="white"/>
<path d="M74.5912 12.3386C74.5912 10.9757 75.2894 10.1123 76.3755 10.1123C76.6441 10.0998 76.9107 10.1644 77.1442 10.2984C77.3776 10.4324 77.5682 10.6303 77.6937 10.869H77.7571V8.5H78.6054V14.4972H77.7925V13.8157H77.7254C77.5902 14.0528 77.3929 14.2482 77.155 14.3809C76.9171 14.5135 76.6475 14.5783 76.3755 14.5683C75.282 14.5683 74.5912 13.7049 74.5912 12.3386ZM75.4675 12.3386C75.4675 13.2535 75.8973 13.804 76.616 13.804C77.331 13.804 77.7729 13.2456 77.7729 12.3424C77.7729 11.4434 77.3264 10.877 76.616 10.877C75.9019 10.877 75.4675 11.4312 75.4675 12.3386Z" fill="white"/>
<path d="M82.1153 12.3396C82.0883 12.0561 82.1206 11.7701 82.2102 11.4999C82.2998 11.2297 82.4447 10.9813 82.6355 10.7706C82.8264 10.5599 83.059 10.3915 83.3186 10.2763C83.5781 10.1611 83.8587 10.1016 84.1425 10.1016C84.4263 10.1016 84.7069 10.1611 84.9664 10.2763C85.2259 10.3915 85.4586 10.5599 85.6495 10.7706C85.8403 10.9813 85.9852 11.2297 86.0748 11.4999C86.1644 11.7701 86.1967 12.0561 86.1697 12.3396C86.1972 12.6233 86.1653 12.9097 86.0759 13.1804C85.9866 13.451 85.8418 13.6999 85.6509 13.911C85.46 14.1221 85.2271 14.2909 84.9674 14.4063C84.7076 14.5218 84.4266 14.5814 84.1425 14.5814C83.8584 14.5814 83.5774 14.5218 83.3176 14.4063C83.0579 14.2909 82.825 14.1221 82.6341 13.911C82.4432 13.6999 82.2984 13.451 82.2091 13.1804C82.1197 12.9097 82.0878 12.6233 82.1153 12.3396ZM85.2971 12.3396C85.2971 11.4046 84.8785 10.8578 84.1439 10.8578C83.4065 10.8578 82.9917 11.4046 82.9917 12.3396C82.9917 13.2821 83.4065 13.8246 84.1439 13.8246C84.8785 13.8246 85.2971 13.2783 85.2971 12.3396Z" fill="white"/>
<path d="M87.3079 10.1844H88.1245V10.8696H88.1879C88.2955 10.6235 88.4769 10.4172 88.7068 10.2795C88.9367 10.1417 89.2038 10.0794 89.4707 10.1012C89.6799 10.0854 89.8899 10.117 90.0852 10.1938C90.2805 10.2705 90.4561 10.3903 90.599 10.5444C90.7419 10.6985 90.8484 10.8828 90.9106 11.0838C90.9729 11.2848 90.9893 11.4973 90.9586 11.7055V14.4978H90.1102V11.9192C90.1102 11.2261 89.81 10.8813 89.1826 10.8813C89.0406 10.8747 88.8989 10.899 88.7671 10.9524C88.6353 11.0059 88.5166 11.0874 88.4191 11.1912C88.3216 11.295 88.2476 11.4188 88.2023 11.5539C88.1569 11.6891 88.1412 11.8326 88.1562 11.9744V14.4978H87.3079V10.1844Z" fill="white"/>
<path d="M95.7522 9.11084V10.2044H96.6835V10.9214H95.7522V13.1394C95.7522 13.5912 95.9377 13.789 96.36 13.789C96.4681 13.7887 96.5761 13.7821 96.6835 13.7694V14.4785C96.5311 14.5058 96.3768 14.5204 96.222 14.522C95.2786 14.522 94.9029 14.1889 94.9029 13.3573V10.9214H94.2205V10.2043H94.9029V9.11084H95.7522Z" fill="white"/>
<path d="M97.8422 8.5H98.6831V10.877H98.7502C98.863 10.6286 99.0494 10.4211 99.2839 10.2828C99.5184 10.1446 99.7898 10.0822 100.061 10.1043C100.269 10.0929 100.477 10.1278 100.67 10.2064C100.863 10.285 101.037 10.4054 101.178 10.5589C101.319 10.7125 101.425 10.8955 101.488 11.0949C101.551 11.2943 101.569 11.5051 101.541 11.7123V14.4972H100.692V11.9223C100.692 11.2334 100.372 10.8845 99.7729 10.8845C99.6271 10.8725 99.4805 10.8926 99.3432 10.9434C99.206 10.9942 99.0814 11.0745 98.9783 11.1787C98.8753 11.2828 98.7961 11.4083 98.7464 11.5464C98.6967 11.6845 98.6776 11.8318 98.6906 11.978V14.4972H97.8423L97.8422 8.5Z" fill="white"/>
<path d="M106.488 13.3326C106.373 13.7269 106.123 14.0679 105.782 14.296C105.442 14.5241 105.032 14.6248 104.625 14.5805C104.342 14.588 104.061 14.5336 103.801 14.421C103.54 14.3084 103.308 14.1404 103.119 13.9286C102.93 13.7167 102.789 13.4662 102.706 13.1943C102.624 12.9225 102.601 12.6358 102.64 12.3542C102.602 12.0717 102.625 11.7844 102.708 11.5117C102.79 11.239 102.93 10.9873 103.118 10.7736C103.306 10.5599 103.538 10.3893 103.797 10.2732C104.056 10.1571 104.338 10.0982 104.622 10.1007C105.818 10.1007 106.539 10.9206 106.539 12.2751V12.5721H103.504V12.6198C103.491 12.7781 103.51 12.9375 103.562 13.0876C103.614 13.2378 103.696 13.3754 103.804 13.4918C103.912 13.6081 104.042 13.7006 104.188 13.7632C104.333 13.8258 104.49 13.8573 104.649 13.8555C104.852 13.88 105.057 13.8433 105.239 13.7502C105.421 13.6571 105.572 13.5117 105.671 13.3326L106.488 13.3326ZM103.504 11.9426H105.675C105.686 11.7978 105.666 11.6524 105.617 11.5157C105.569 11.379 105.492 11.254 105.393 11.1487C105.293 11.0435 105.172 10.9604 105.039 10.9046C104.905 10.8489 104.761 10.8218 104.617 10.8252C104.47 10.8233 104.325 10.851 104.189 10.9065C104.053 10.962 103.929 11.0442 103.826 11.1484C103.722 11.2525 103.64 11.3764 103.585 11.5128C103.529 11.6492 103.502 11.7953 103.504 11.9426Z" fill="white"/>
</svg>
