<svg 
    width="160" 
    height="160" 
    viewBox="0 0 160 160" 
    fill="none" 
    xmlns="http://www.w3.org/2000/svg"
>
    <path d="M155 0H5C2.23858 0 0 2.23858 0 5V37.5C0 40.2614 2.23858 42.5 5 42.5H50C55.5228 42.5 60 46.9772 60 52.5V78.75C60 83.5825 56.0825 87.5 51.25 87.5C46.4175 87.5 42.5 83.5825 42.5 78.75V60C42.5 57.2386 40.2614 55 37.5 55H5C2.23858 55 0 57.2386 0 60V150C0 155.523 4.47715 160 10 160H150C155.523 160 160 155.523 160 150V60C160 57.2386 157.761 55 155 55H122.5C119.739 55 117.5 57.2386 117.5 60V78.75C117.5 83.5825 113.582 87.5 108.75 87.5C103.918 87.5 100 83.5825 100 78.75V52.5C100 46.9772 104.477 42.5 110 42.5H155C157.761 42.5 160 40.2614 160 37.5V5C160 2.23858 157.761 0 155 0Z" fill="black"/>
</svg>
